<svg xmlns="http://www.w3.org/2000/svg" width="16" height="20" viewBox="0 0 16 20" fill="none">
<path fill="#000" d="M8.2375 4.5375C9.125 4.5375 10.2375 3.9375 10.9 3.1375C11.5 2.4125 11.9375 1.4 11.9375 0.3875C11.9375 0.25 11.925 0.1125 11.9 0C10.9125 0.0374999 9.725 0.6625 9.0125 1.5C8.45 2.1375 7.9375 3.1375 7.9375 4.1625C7.9375 4.3125 7.9625 4.4625 7.975 4.5125C8.0375 4.525 8.1375 4.5375 8.2375 4.5375ZM5.1125 19.6625C6.325 19.6625 6.8625 18.85 8.375 18.85C9.9125 18.85 10.25 19.6375 11.6 19.6375C12.925 19.6375 13.8125 18.4125 14.65 17.2125C15.5875 15.8375 15.975 14.4875 16 14.425C15.9125 14.4 13.375 13.3625 13.375 10.45C13.375 7.925 15.375 6.7875 15.4875 6.7C14.1625 4.8 12.15 4.75 11.6 4.75C10.1125 4.75 8.9 5.65 8.1375 5.65C7.3125 5.65 6.225 4.8 4.9375 4.8C2.4875 4.8 0 6.825 0 10.65C0 13.025 0.925001 15.5375 2.0625 17.1625C3.0375 18.5375 3.8875 19.6625 5.1125 19.6625Z"/>
</svg>
