<svg width="32" height="32" viewBox="0 0 32 32" fill="none" xmlns="http://www.w3.org/2000/svg">
<path d="M7.33 29.45c1.05.68 2.24 1.23 3.51 1.64L31.11 10.72a22.85 22.85 0 0 0-2.94-3.39L7.33 29.45Z" fill="#000"/>
<path d="M16 32c-.37 0-.74-.01-1.11-.04L31.37 14.89c.03.37.04.74.04 1.11 0 .05 0 .1 0 .16l-.02 3.78L19.9 32h-3.83l0 0c-.02 0-.05 0-.07 0Z" fill="#000"/>
<path d="M24.93 32h6.97l.03-7.03L24.93 32Z" fill="#000"/>
<path d="M27.19 4.56A15.85 15.85 0 0 0 16 0C7.16 0 0 7.16 0 16a15.85 15.85 0 0 0 4.56 11.19L27.19 4.56Z" fill="#000"/>
</svg>